<?xml version='1.0' encoding='utf-8'?>
<svg xmlns="http://www.w3.org/2000/svg" version="1.1" id="Layer_1" x="0px" y="0px" viewBox="0 0 2348.591 1634.831" enable-background="new 0 0 2348.591 1634.831"> <g> <path d="M2258.006,1154.995c-5.796-17.22,5.285-17.828-30.655-102.681c-8.953-21.137-14.135-81.196-55.26-167.671 c-36.334-76.403-87.454-108.489-115.865-138.572c-18.485-19.572-33.634-1.336-126.469-35.838 c-47.234-17.555-46.225-31.997-68.33-29.882c-7.144,0.683-13.726-0.698-20.457-3.947c-12.385-5.979-24.325,0.504-36.231,3.416 c-11.491,2.811-11.22,7.928-20.556,6.123c-72.562-14.037-115.012-24.246-159.651-74.886 c-14.442-16.384-79.044-92.64-84.753-116.945c-7.164-30.502-12.75-17.221-18.52-42.715c-2.006-8.864-18.908-41.143-23.688-63.129 c-8.562-39.383-17.728-24.017-18.534-113.034c-0.057-6.372-5.021-11.994-5.711-18.754c-1.778-17.418-9.38-33.123-15.152-49.361 c-0.234-0.659-0.024-1.758-0.434-2.031c-10.515-6.989-11.879-21.26-22.585-28.176c-4.333-2.799-2.896-9.471-7.493-12.597 c-1.385-0.942-1.944-3.201-3.949-3.763c-10.45-2.927-2.849-11.587-9.296-12.321c-6.362-0.725-8.545-5.121-11.236-10.116 c-5.547-10.294-15.97-15.772-24.893-22.602c-1.849-1.416-4.574-2.993-5.109-4.521c-4.049-11.545-15.674-15.248-23.752-22.041 c-10.016-8.423-19.697-18.27-32.669-22.868c-2.191-0.777-4.31-1.589-5.434-4.134c-14.098-31.935-59.715-21.16-87.06-42.362 c-3.672-2.848-9.722-2.117-13.967-1.03c-9.846,2.522-19.575-1.06-29.4,0.864c-18.329,3.591-27.603,4.83-45.084-0.968 c-8.027-2.663-15.27,0.606-22.864,0.9c-14.423,0.559-26.133,7.164-38.261,13.651c-18.979,10.151-27.874,5.238-31.819,13.33 c-3.197,6.556-20.744,23.93-22.311,26.833c-1.449,2.684-4.215,3.538-7.285,3.513c-13.752-0.112-24.308,6.31-32.854,16.505 c-2.167,2.585-11.929,3.813-16.874,13.551c-3.636,7.16-11.427,10.7-17.143,16.109c-1.324,1.253-3.59,1.836-4.14,3.682 c-4.583,15.381-18.363,7.196-25.982,16.239c-8.116,9.634-16.487,19.103-18.617,32.191c-0.3,1.841-1.586,2.815-3.089,3.632 c-8.763,4.76-13.505,13.646-20.489,19.986c-7.803,7.084-7.684,18.057-15.237,24.687c-0.98,0.86-1.444,2.571-2.92,2.807 c-17.127,2.728-7.944,17.795-26.074,27.2c-4.344,2.253-7.795,6.707-13.131,7.061c-4.961,0.33,1.395,5.307-6.465,8.697 c-7.688,3.316-8.037,10.309-7.905,16.494c0.139,6.527-2.813,11.242-5.663,16.322c-0.913,1.627-2.973,3.098-2.992,4.659 c-0.105,8.71-5.092,12.462-12.911,13.61c-2.274,0.334-2.051,1.918-2.521,3.541c-1.879,6.481-3.711,13.08-9.98,17.019 c-1.243,0.781-2.552,1.704-2.172,3.33c1.714,7.352-2.996,4.63-6.157,3.874c-20.638-4.939-20.027-13.008-26.033-9.554 c-3.638,2.092-1.262,4.805-1.33,7.093c-4.44,1.213-8.684-0.43-12.906,1.301c-2.573,1.055-3.005-0.857-2.466-3.685 c0.683-3.585-2.282-6.113-5.041-3.52c-5.916,5.561-7.604-1.062-11.346-2.314c1.258-2.723,5.772,0.08,5.099-3.805 c-0.537-3.101-3.452-1.779-5.242-1.749c-11.347,0.192-22.308-4.535-33.464-3.533c-8.482,0.761-19.268-3.319-24.696,7.919 c-0.704,1.457-2.447,1.367-3.844,1.201c-6.252-0.741-12.05,0.803-17.878,2.912c-39.754,14.39-94.779-18.763-203.475,92.008 c-77.156,78.63-94.748,202.942-142.277,381.281c-8.851,33.212,2.824,31.836-15.784,78.967c-8.35,21.148-10.831,24.395-10.543,39.76 c0.244,13.061-8.309,40.759-10.455,41.525c-12.181,4.351-9.287,16.574-13.034,25.212c-1.128,2.601-3.377,6.93-2.596,8.277 c4.27,7.369-3.554,10.93-4.868,16.385c-1.491,6.19-1.272,13.434-6.236,18.925c-1.493,1.652-0.835,5.444-0.774,8.247 c0.056,2.557,2.934,6.125-2.911,5.791c-1.545-0.088-1.817,1.978-1.182,2.696c4.43,5.014-1.261,10.513,1.262,15.66 c-2.151-1.441-1.618-4.281-4.197-5.489c-1.031-0.483-1.92-1.921-3.341-1.474c-1.404,0.441-2.656,1.715-2.352,3.195 c2.022,9.815-12.706,22.455-8.992,32.163c2.263,5.914-3.619,9.893-5.508,14.855c-5.506,14.464-13.12,15.465-8.91,22.598 c1.328,2.25-1.196,3.424-2.246,4.689c-11.822,14.261-13.075,32.746-19.729,49.057c-10.189,24.975-28.409,23.385-30.518,37.604 c-0.152,1.026-1.257,1.979-2.065,2.83c-17.34,18.271-30.079,39.982-44.297,60.51c-7.178,10.364-14.863,22.705-13.766,35.378 c0.919,10.615-2.72,8.752-24.636,48.105c6.34,8.29-6.762,7.382-6.434,13.615c0.22,4.174-3.73,8.578,3.918,9.89 c5.23,0.896-0.578,10.237,3.811,11.129c2.902,0.59,2.222-1.136,9.516-18.454c2.094-4.972,6.438-7.31,11.58-9.949 c-1.498,8.27-8.24,12.574-10.604,19.419c-2.91,8.43-17.029,21.506-24.15,23.281v158.18c0,17.348,14.064,31.41,31.412,31.408 c292.744-0.039,585.489-0.058,878.233-0.075c14.273-0.001,25.842-11.571,25.842-25.844c0,0-0.208-186.055-0.292-186.309 c-0.066-0.202-16.543-20.59-20.78-32.984c-16.217-47.435-51.794-67.517-64.898-82.537c-37.892-43.429-98.361-30.66-151.969-102.395 c-17.554-23.489-30.084-28.748-27.774-44.374c6.081-41.129-8.218-33.549,16.682-81.37c23.442-45.02,36.531-68.811,66.525-65.229 c28.108,3.356,157.902,35.163,136.641-48.478c-1.851-7.284-1.061-13.52,2.766-19.542c4.685-7.373,8.787-15.092,14.632-21.764 c6.137-7.006,3.535-18.005-5.569-21.816c-10.841-4.538-1.301-12.255-5.043-25.895c-2.434-8.873,18.763-2.741,13.805-24.158 c-0.532-2.299-1.42-4.513-2.022-6.799c-3.887-14.74,3.671-25.042,18.933-24.938c25.653,0.174,50.169-10.641,40.226-35.811 c-6.777-17.158-21.452-33.242-36.108-60.857c-16.419-30.937-43.837-35.32-33.422-66.64c1.46-4.391-1.831-7.208-1.559-10.882 c1.763-23.83-3.499-47.079-5.739-70.577c-0.104-1.091-0.345-2.353,1.64-3.828c15.166,37.27,16.843,45.433,29.951,57.424 c11.323,10.358,7.291,14.737,18.405,15.913c6.326,0.669,9.561,4.617,9.769,10.871c0.57,17.09,4.897,33.623,7.495,50.406 c5.75,37.146-1.19,42.945,4.536,59.873c6.904,20.411,24.538,26.914,42.645,15.379c23.967-15.268,43.694-15.786,49.055,9.832 c6.96,33.278,27.443,11.224,28.922,25.069c2.592,24.263,20.579,26.67,45.222,31.249c20.736,3.852,18.286,30.507,54.011,42.18 c17.449,5.701,35.364,5.502,51.997-4.047c24.262-13.928,47.249-29.455,65.541-51.147c13.314-15.788,16.57,2.363,24.916,5.435 c10.084,3.712,10.981,12.487,21.179,32.214c13.541,26.193-10.325,25.275-40.868,63.809c-11.347,14.317-27.116,23.541-41.008,34.839 c-87.063,70.81-87.643,90.918-113.106,114.571c-44.587,41.421-65.928,141.265-59.765,196.351 c1.573,14.057-5.825,31.138-4.797,52.138c1.295,26.436-8.353,50.159-16.219,74.326v194.579c0,17.534,14.214,31.747,31.748,31.746 c388.524-0.018,777.048-0.025,1165.573-0.025c16.996,0,30.773-13.778,30.773-30.774c0-228.764,3.903-231.155-12.209-263.092 C2286.779,1275.53,2264.163,1173.289,2258.006,1154.995z"/> </g> </svg>